<svg width="30" height="17" viewBox="0 0 30 17" fill="none" xmlns="http://www.w3.org/2000/svg">
<path d="M8.88697 0C16.4405 0 16.7572 0.00580785 16.8861 0.104098C17.0795 0.260217 17.0619 0.555111 16.8569 0.734363L16.6986 0.867345H1.12225L1.00503 1.01769C0.881964 1.17381 0.881973 1.17383 0.881973 8.49998C0.881973 15.8262 0.881964 15.8262 1.00503 15.9823L1.12225 16.1326H4.86103C8.55881 16.1326 8.60571 16.1326 8.75807 16.2541C8.95145 16.4044 8.96903 16.7109 8.79323 16.8843C8.67602 17 8.59983 17 4.84932 17H1.02263L0.723722 16.8554C0.407284 16.6993 0.155296 16.4044 0.061532 16.069C-0.0205107 15.8031 -0.0205107 1.19694 0.061532 0.930956C0.155296 0.595594 0.407284 0.300708 0.723722 0.144586L1.02263 0H8.88697Z" fill="white"/>
<path d="M29.2921 0.150345C29.6437 0.323814 29.925 0.693913 29.9777 1.06398C29.9953 1.19148 30.007 4.63182 29.9953 8.70237C29.9777 15.4619 29.9719 16.1211 29.8781 16.2772C29.7375 16.5374 29.4796 16.7687 29.2159 16.8901C28.9932 16.9942 28.5711 17 19.5407 17C10.4458 17 10.0882 16.9942 9.95931 16.8959C9.76593 16.7398 9.78352 16.4449 9.98863 16.2656L10.1468 16.1326H28.8877L29.0049 15.9823C29.128 15.8262 29.128 15.8262 29.128 8.49998C29.128 1.17383 29.128 1.17381 29.0049 1.01769L28.8877 0.867345H23.5667C18.2691 0.867345 18.2456 0.86735 18.0874 0.745925C17.894 0.595587 17.8764 0.28913 18.0522 0.11566C18.1694 1.42272e-05 18.2456 0 23.5784 0H28.9874L29.2921 0.150345Z" fill="white"/>
<path d="M2.01299 10.9864C2.1888 10.9112 2.41735 10.969 2.54041 11.1136C2.62831 11.2177 2.64003 11.3911 2.64003 12.8136V14.3922L5.93342 14.4268L6.04476 14.5656C6.19127 14.7391 6.18541 14.9241 6.03304 15.1149L5.91587 15.2653H2.00123L1.88406 15.1149C1.76686 14.9646 1.761 14.8952 1.761 13.1143C1.761 11.9174 1.78441 11.2293 1.82543 11.1541C1.86059 11.0905 1.94267 11.0153 2.01299 10.9864Z" fill="white"/>
<path fill-rule="evenodd" clip-rule="evenodd" d="M20.7129 5.0364C21.9728 4.88028 23.0628 5.67823 23.2738 6.91564C23.3324 7.25101 23.3265 7.40713 23.2503 7.88128C23.0159 9.23433 22.3068 10.6048 21.3633 11.5415C20.7949 12.0966 20.4667 12.2006 20.2499 11.8942C20.08 11.6571 20.1386 11.4952 20.5195 11.1309C21.0586 10.6105 21.879 9.48296 21.7911 9.39045C21.7793 9.37891 21.6622 9.39625 21.5333 9.43093C21.4102 9.46563 21.1172 9.48299 20.8887 9.47142C19.4881 9.37891 18.4918 8.04319 18.8376 6.70748C19.0661 5.82857 19.828 5.14627 20.7129 5.0364ZM21.7032 6.03673C21.0059 5.71293 20.2441 5.9153 19.8514 6.53977C19.4178 7.23365 19.7108 8.16463 20.4785 8.50578C21.293 8.87005 22.2775 8.32073 22.424 7.41292C22.5061 6.91564 22.1603 6.25646 21.7032 6.03673Z" fill="white"/>
<path d="M6.94139 4.97855C7.01172 4.94386 7.38679 4.92074 7.86145 4.9323C8.55878 4.94387 8.68187 4.96121 8.78735 5.05372C8.91041 5.16359 8.9104 5.18095 8.9104 8.49998C8.9104 11.6051 8.90454 11.8422 8.81078 11.9289C8.6174 12.0966 8.41228 12.1082 8.23061 11.952L8.06069 11.8075L8.02554 5.78233H7.47468C6.95314 5.78233 6.91795 5.77653 6.80661 5.63198C6.73629 5.54525 6.68356 5.44114 6.68356 5.40066C6.68357 5.2561 6.81247 5.04215 6.94139 4.97855Z" fill="white"/>
<path fill-rule="evenodd" clip-rule="evenodd" d="M12.3152 5.07689C12.6434 4.91499 12.954 5.09422 12.954 5.44115C12.954 5.55679 12.8368 5.71294 12.4969 6.05409C12.0867 6.46464 11.3131 7.49966 11.3131 7.63844C11.3131 7.67891 11.3835 7.68469 11.5065 7.65C11.6062 7.62687 11.9051 7.60373 12.1629 7.60951C12.5672 7.60951 12.6962 7.63844 13.0243 7.78878C13.5224 8.02007 13.9092 8.39593 14.1436 8.89321C14.3136 9.24591 14.3311 9.33265 14.3311 9.82992C14.3311 10.3388 14.3135 10.414 14.1377 10.7667C13.6806 11.6803 12.6786 12.2064 11.7234 12.0272C10.733 11.8422 10.0063 11.1136 9.8481 10.1479C9.70161 9.2459 10.188 7.64422 10.9732 6.4762C11.278 6.01941 12.0691 5.19257 12.3152 5.07689ZM12.5555 8.53471C12.157 8.39593 11.8523 8.41907 11.4831 8.59832C10.4576 9.11872 10.44 10.5238 11.4597 11.0384C12.4383 11.5357 13.5928 10.7377 13.4638 9.65645C13.4463 9.50033 13.3877 9.29796 13.3408 9.19966C13.1943 8.92211 12.8485 8.63301 12.5555 8.53471Z" fill="white"/>
<path d="M16.3704 9.19386C16.7513 9.03773 17.1264 9.3847 16.9916 9.77211C16.8802 10.0786 16.4993 10.1653 16.2532 9.93402C16.0305 9.72586 16.095 9.30372 16.3704 9.19386Z" fill="white"/>
<path d="M16.3704 7.45917C16.7513 7.30304 17.1264 7.65001 16.9916 8.03742C16.8802 8.34387 16.4993 8.4306 16.2532 8.19933C16.0305 7.99117 16.095 7.56903 16.3704 7.45917Z" fill="white"/>
<path d="M28.126 1.88504C28.2432 2.03537 28.249 2.10477 28.249 3.90305C28.249 5.63774 28.2432 5.77654 28.1377 5.90375C27.9853 6.08877 27.6337 6.08877 27.4814 5.90375C27.3759 5.78232 27.37 5.64932 27.37 4.18642V2.60784L24.0766 2.57315L23.9653 2.43437C23.8188 2.2609 23.8246 2.07585 23.977 1.88504L24.0942 1.73469H28.0088L28.126 1.88504Z" fill="white"/>
</svg>
